<?xml version="1.0" encoding="utf-8"?>
<!-- Generator: Adobe Illustrator 28.0.0, SVG Export Plug-In . SVG Version: 6.00 Build 0)  -->
<svg version="1.1" fill="rgb(5, 117 ,174)" id="Capa_1" xmlns="http://www.w3.org/2000/svg" xmlns:xlink="http://www.w3.org/1999/xlink" x="0px" y="0px"
	 viewBox="0 0 283.57 274.14" style="enable-background:new 0 0 283.57 274.14;" xml:space="preserve">

<g>
	<path class="st0" d="M82.27,27.94h82.5c0,14.7,0,29.39,0,44.09c0,13.34,8.11,21.4,21.51,21.4c13.82,0,27.65,0,41.47,0
		c0.78,0,1.55,0,2.51,0c0,0.95,0,1.66,0,2.37c0,45.03,0.01,90.05-0.01,135.08c0,11.37-9.22,20.59-20.59,20.59
		c-43.14,0.01-86.27,0.01-129.41,0c-1.12,0-2.95-0.13-4.06-0.35c-9.91-1.96-16.21-9.72-16.21-20.13c-0.01-44.67,0-89.34,0-134.01
		c0-16.37-0.02-32.74,0.01-49.11c0.01-6.96,2.83-12.64,8.66-16.44c0.83-0.54,1.72-0.98,2.65-1.37
		C74.76,28.6,78.51,27.94,82.27,27.94z M145.19,133.16c12.87,0,25.73-0.01,38.6,0.01c3.07,0,5.39-1.21,6.62-4.04
		c1.97-4.5-1.39-9.05-6.66-9.06c-18.17-0.02-36.35-0.01-54.52-0.01c-7.66,0-15.33,0.01-22.99-0.01c-2.57-0.01-5.03,1.32-6.22,3.6
		c-2.38,4.56,0.99,9.48,6.35,9.5C119.31,133.18,132.25,133.16,145.19,133.16z M145.08,146.26c-12.87,0-25.73,0.02-38.6-0.01
		c-3.07-0.01-5.39,1.19-6.65,4.01c-2,4.48,1.36,9.09,6.62,9.09c17.01,0.02,34.02,0.01,51.03,0.01c8.8,0,17.59-0.01,26.39,0.01
		c2.97,0.01,5.24-1.19,6.49-3.91c2.06-4.47-1.25-9.18-6.46-9.19C170.96,146.24,158.02,146.26,145.08,146.26z M145.11,185.55
		c12.87,0,25.73-0.01,38.6,0.01c2.96,0.01,5.26-1.06,6.58-3.78c2.16-4.45-1.06-9.3-6.23-9.32c-12.5-0.04-25.01-0.01-37.51-0.01
		c-13.38,0-26.75,0.01-40.13-0.01c-2.87,0-5.1,1.08-6.42,3.67c-2.28,4.49,0.99,9.41,6.29,9.42
		C119.23,185.57,132.17,185.55,145.11,185.55z M132.06,198.65c-8.5,0-17-0.01-25.51,0c-4.25,0.01-7.21,2.66-7.27,6.45
		c-0.05,3.69,2.64,6.35,6.65,6.62c1.16,0.08,51.68,0.11,53-0.09c3.54-0.55,5.84-3.03,5.83-6.45c-0.01-3.89-2.98-6.52-7.41-6.53
		C148.91,198.64,140.48,198.65,132.06,198.65z"/>
	<path class="st0" d="M177.86,32.23c16.1,16.09,32.01,31.99,48.02,47.99c-0.51,0.03-1.04,0.1-1.58,0.1
		c-13.01,0.01-26.02,0.01-39.03,0c-4.79,0-7.4-2.62-7.4-7.42c-0.01-13.01,0-26.02,0-39.03C177.86,33.37,177.86,32.87,177.86,32.23z"
		/>
</g>
</svg>
