<?xml version="1.0" encoding="UTF-8"?>
<svg id="Capa_1" fill="rgb(5, 117 ,174)" data-name="Capa 1" xmlns="http://www.w3.org/2000/svg" viewBox="0 0 283.57 274.14">
  <defs>
  </defs>
  <rect class="cls-1" x="53.71" y="152.13" width="39.92" height="77.6" rx="11.84" ry="11.84"/>
  <rect class="cls-1" x="105.19" y="133.06" width="39.92" height="96.67" rx="11.88" ry="11.88"/>
  <rect class="cls-1" x="156.68" y="112.94" width="39.92" height="116.79" rx="11.87" ry="11.87"/>
  <rect class="cls-1" x="208.16" y="90.84" width="39.92" height="138.88" rx="11.91" ry="11.91"/>
  <path class="cls-1" d="m248.09,256.16H27.67c-4.14,0-7.49-3.35-7.49-7.49V36.39c0-4.14,3.35-7.49,7.49-7.49s7.49,3.35,7.49,7.49v204.79h212.93c4.14,0,7.49,3.35,7.49,7.49s-3.35,7.49-7.49,7.49Z"/>
  <g>
    <path class="cls-1" d="m66.34,117.8c-2.54,0-5.01-1.29-6.42-3.61-2.15-3.54-1.01-8.14,2.53-10.29l53.23-32.23c5.48-3.33,12.71-2.11,16.82,2.86l9.25,13.48,68.07-42.73c3.55-2.15,8.14-1.03,10.29,2.51,2.16,3.53,1.02,8.14-2.51,10.29l-69.68,42.38c-6.25,3.82-14.41,2.06-18.55-4l-7.52-11.01-51.64,31.28c-1.22.73-2.56,1.08-3.87,1.08Z"/>
    <path class="cls-1" d="m212.1,79.06c-.88,0-1.77-.17-2.63-.52-3.58-1.46-5.3-5.54-3.84-9.11l6.67-16.37-17.18-2.89c-3.8-.64-6.37-4.24-5.73-8.06.64-3.8,4.33-6.37,8.06-5.73l27.28,3.63c3.73.5,6,4.38,4.6,7.87l-10.73,26.81c-1.1,2.72-3.72,4.36-6.48,4.36Z"/>
  </g>
</svg>