<?xml version="1.0" encoding="utf-8"?>
<!-- Generator: Adobe Illustrator 28.0.0, SVG Export Plug-In . SVG Version: 6.00 Build 0)  -->
<svg version="1.1" id="Capa_1" xmlns="http://www.w3.org/2000/svg" xmlns:xlink="http://www.w3.org/1999/xlink" x="0px" y="0px"
	 viewBox="0 0 274.29 186.71" style="enable-background:new 0 0 274.29 186.71;" xml:space="preserve">
<style type="text/css">
	.st0{fill:#AEADAD;}
</style>
<g>
	<path class="st0" d="M217.85,62.86H56.43c-7.21,0-13.05-5.84-13.05-13.05v0c0-7.21,5.84-13.05,13.05-13.05h161.42
		c7.21,0,13.05,5.84,13.05,13.05v0C230.9,57.02,225.06,62.86,217.85,62.86z"/>
	<path class="st0" d="M217.85,106.4H101.28c-7.21,0-13.05-5.84-13.05-13.05v0c0-7.21,5.84-13.05,13.05-13.05h116.57
		c7.21,0,13.05,5.84,13.05,13.05v0C230.9,100.56,225.06,106.4,217.85,106.4z"/>
	<path class="st0" d="M217.85,149.95H56.43c-7.21,0-13.05-5.84-13.05-13.05v0c0-7.21,5.84-13.05,13.05-13.05h161.42
		c7.21,0,13.05,5.84,13.05,13.05v0C230.9,144.11,225.06,149.95,217.85,149.95z"/>
</g>
</svg>
